<mxfile host="65bd71144e">
    <diagram id="xYpieU3OsDlBosfl1Ia8" name="Page-1">
        <mxGraphModel dx="1130" dy="792" grid="1" gridSize="10" guides="1" tooltips="1" connect="1" arrows="1" fold="1" page="1" pageScale="1" pageWidth="850" pageHeight="1100" math="0" shadow="0">
            <root>
                <mxCell id="0"/>
                <mxCell id="1" parent="0"/>
                <mxCell id="2" value="Services" style="text;html=1;strokeColor=none;fillColor=none;align=center;verticalAlign=middle;whiteSpace=wrap;rounded=0;fontSize=21;" vertex="1" parent="1">
                    <mxGeometry x="480" y="260" width="110" height="60" as="geometry"/>
                </mxCell>
                <mxCell id="5" value="&lt;h1 style=&quot;font-size: 12px;&quot;&gt;Tech stack&lt;/h1&gt;&lt;p style=&quot;font-size: 12px;&quot;&gt;1. Go&lt;/p&gt;&lt;p style=&quot;font-size: 12px;&quot;&gt;2. ContainerD&lt;/p&gt;&lt;p style=&quot;font-size: 12px;&quot;&gt;3. Kafka&lt;/p&gt;" style="text;html=1;strokeColor=none;fillColor=none;spacing=5;spacingTop=-20;whiteSpace=wrap;overflow=hidden;rounded=0;fontSize=12;" vertex="1" parent="1">
                    <mxGeometry x="20" y="110" width="190" height="120" as="geometry"/>
                </mxCell>
                <mxCell id="6" value="&lt;h1&gt;Goal&lt;/h1&gt;&lt;p&gt;To build a competitive coding platform&lt;/p&gt;&lt;p&gt;To learn the microservices architecture&lt;/p&gt;" style="text;html=1;strokeColor=none;fillColor=none;spacing=5;spacingTop=-20;whiteSpace=wrap;overflow=hidden;rounded=0;fontSize=12;" vertex="1" parent="1">
                    <mxGeometry x="170" y="100" width="190" height="120" as="geometry"/>
                </mxCell>
                <mxCell id="10" value="" style="group" vertex="1" connectable="0" parent="1">
                    <mxGeometry x="410" y="340" width="250" height="110" as="geometry"/>
                </mxCell>
                <mxCell id="3" value="" style="rounded=0;whiteSpace=wrap;html=1;fontSize=21;" vertex="1" parent="10">
                    <mxGeometry width="250" height="110" as="geometry"/>
                </mxCell>
                <mxCell id="9" value="" style="group" vertex="1" connectable="0" parent="10">
                    <mxGeometry y="10" width="235" height="80" as="geometry"/>
                </mxCell>
                <mxCell id="7" value="Code Execution Service" style="text;html=1;strokeColor=none;fillColor=none;align=center;verticalAlign=middle;whiteSpace=wrap;rounded=0;fontSize=16;" vertex="1" parent="9">
                    <mxGeometry width="235" height="30" as="geometry"/>
                </mxCell>
                <mxCell id="8" value="This service takes in a block ot text and executes it then returns the result of the exeuction" style="text;html=1;strokeColor=none;fillColor=none;align=center;verticalAlign=middle;whiteSpace=wrap;rounded=0;fontSize=13;" vertex="1" parent="9">
                    <mxGeometry x="32.5" y="50" width="190" height="30" as="geometry"/>
                </mxCell>
            </root>
        </mxGraphModel>
    </diagram>
</mxfile>